# xmcd
#
# Track frame offsets:
#	150
#	15675
#	32270
#	48967
#	70835
#	87320
#	104870
#	121960
#	138358
#	155345
#	171703
#	188708
#	206508
#	225925
#	242788
#	260873
#	275775
#	291543
#	309400
#	328475
#
# Disc length: 4603 seconds
#
# Revision: 0
# Processed by: cddbd v1.5.2PL0 Copyright (c) Steve Scherf et al.
# Submitted via: EasyCDDAExtractor 15.3.0.1
#
DISCID=3111f914
DTITLE=Varios Artistas - Las Caras De La Luna
DYEAR=2004
DGENRE=Latin
TTITLE0=Jennifer Peña - El Dolor De Tu Presencia
TTITLE1=Ana Barbara - Te Regalo La Lluvia
TTITLE2=Graciela Beltran - Corazon Encadenado (A Duo Con Conjunto Primavera)
TTITLE3=Noelia - Tu
TTITLE4=Betzaida - Te Tengo Que Aprender A Olvidar
TTITLE5=Mia - Acariciame
TTITLE6=Pilar Montenegro - Quitame Ese Hombre
TTITLE7=Yolanda Perez - Aqui Me Tienes
TTITLE8=Jennifer Peña - Prefiero Irme Enamorada
TTITLE9=Ana Barbara - Deja
TTITLE10=Graciela Beltran - Que Dificil Es
TTITLE11=Noelia - Clavame Tu Amor
TTITLE12=Betzaida - No Te Quiero Olvidar
TTITLE13=Mariana - Me Equivoque
TTITLE14=Pilar Montenegro - Alguien Que Una Vez Ame
TTITLE15=Jennifer Peña - Tu Me Completas
TTITLE16=Ana Barbara - Loca
TTITLE17=Graciela Beltran - Que Pena
TTITLE18=Noelia - Ya No Eres El Mismo
TTITLE19=Pilar Montenegro - Cuando Estamos Juntos
EXTD=
EXTT0=
EXTT1=
EXTT2=
EXTT3=
EXTT4=
EXTT5=
EXTT6=
EXTT7=
EXTT8=
EXTT9=
EXTT10=
EXTT11=
EXTT12=
EXTT13=
EXTT14=
EXTT15=
EXTT16=
EXTT17=
EXTT18=
EXTT19=
PLAYORDER=
